<svg width="15" height="16" viewBox="0 0 15 16" fill="none" xmlns="http://www.w3.org/2000/svg">
<path d="M6 0.278C6.09761 0.396612 6.15741 0.541772 6.17168 0.694723C6.18594 0.847673 6.154 1.00139 6.08 1.136C5.50186 2.19747 5.19993 3.38729 5.202 4.596C5.202 8.617 8.48 11.873 12.52 11.873C13.047 11.873 13.56 11.818 14.053 11.713C14.2041 11.6803 14.3615 11.6928 14.5056 11.749C14.6497 11.8052 14.774 11.9026 14.863 12.029C14.957 12.1604 15.0049 12.3193 14.9993 12.4808C14.9937 12.6423 14.9349 12.7974 14.832 12.922C14.0477 13.8854 13.0582 14.6617 11.9358 15.1942C10.8134 15.7267 9.58632 16.002 8.344 16C3.734 16 0 12.286 0 7.71C0 4.266 2.114 1.312 5.124 0.06C5.27394 -0.00336815 5.44039 -0.0163742 5.59835 0.0229357C5.75631 0.0622455 5.89725 0.151749 6 0.278V0.278Z" fill="white"/>
</svg>